<svg viewBox="0 0 512 512" xmlns="http://www.w3.org/2000/svg"><path d="M365.714 512H146.286C65.6 512 0 446.4 0 365.714V146.286C0 65.6 65.6 0 146.286 0h219.428C446.4 0 512 65.6 512 146.286v219.428C512 446.4 446.4 512 365.714 512zm0-451.429H146.286C94.857 60.571 60.571 94.857 60.571 146.286v219.428c0 51.429 34.286 85.714 85.714 85.714h219.428c51.429 0 85.714-34.286 85.714-85.714V146.286c-.001-51.429-34.287-85.715-85.715-85.715zm0 0" fill="#fd1056"/><path d="M256 128c-70.693 0-128 57.307-128 128s57.307 128 128 128 128-57.307 128-128-57.307-128-128-128zm0 234.286c-57.33 0-106.286-48.957-106.286-106.286S198.67 149.714 256 149.714 362.286 198.67 362.286 256 313.33 390.286 256 390.286zm0 0"/><circle cx="256" cy="256" r="92.571" fill="#fd1056"/></svg>
